<?xml version="1.0" standalone="no"?>
<!DOCTYPE svg PUBLIC "-//W3C//DTD SVG 20010904//EN"
 "http://www.w3.org/TR/2001/REC-SVG-20010904/DTD/svg10.dtd">
<svg version="1.0" xmlns="http://www.w3.org/2000/svg"
 width="500.000000pt" height="500.000000pt" viewBox="0 0 500.000000 500.000000"
 preserveAspectRatio="xMidYMid meet">
<metadata>
Created by potrace 1.14, written by Peter Selinger 2001-2017
</metadata>
<g transform="translate(0.000000,500.000000) scale(0.100000,-0.100000)"
fill="#000000" stroke="none">
<path d="M0 2500 l0 -2500 2500 0 2500 0 0 2500 0 2500 -2500 0 -2500 0 0
-2500z m763 1897 c139 -174 292 -339 414 -449 142 -128 187 -161 317 -235
l109 -62 46 33 c61 44 114 70 184 91 31 9 99 36 150 60 116 54 288 109 390
126 197 31 444 -20 688 -141 31 -15 83 -36 115 -45 70 -20 147 -58 195 -96
l36 -28 99 55 c54 30 130 77 167 106 226 169 533 501 719 778 l71 105 -6 -95
c-12 -181 -86 -428 -189 -635 -116 -231 -255 -414 -477 -627 l-131 -125 16
-114 c23 -161 15 -323 -25 -511 -29 -137 -31 -150 -16 -177 21 -42 19 -114 -5
-158 -11 -21 -20 -49 -20 -63 0 -38 41 -91 114 -149 75 -60 88 -88 87 -188 -1
-147 -66 -255 -175 -289 -55 -17 -57 -19 -72 -68 -8 -28 -19 -93 -24 -144 -10
-107 -41 -184 -116 -289 -42 -59 -46 -69 -41 -107 6 -44 70 -245 106 -336 l22
-55 -63 62 c-35 34 -85 96 -113 137 -27 42 -55 76 -61 76 -6 0 -39 -29 -72
-64 -53 -55 -62 -70 -62 -100 0 -81 -48 -148 -141 -197 -31 -17 -92 -63 -137
-104 -83 -75 -143 -105 -214 -105 -32 0 -78 21 -97 44 -8 9 -28 16 -46 16 -18
0 -38 -7 -46 -16 -19 -23 -65 -44 -97 -44 -67 0 -134 30 -192 88 -32 31 -83
73 -114 92 -144 89 -169 117 -184 212 -7 44 -18 67 -49 105 -47 56 -94 86
-101 65 -8 -26 -121 -168 -170 -216 l-50 -49 39 104 c22 57 53 153 70 213 l29
108 -45 62 c-77 103 -106 171 -121 293 -8 59 -21 129 -29 154 -14 41 -20 47
-58 58 -75 22 -113 55 -148 127 -26 55 -33 84 -37 154 -6 107 8 140 79 195
115 87 141 145 99 222 -24 46 -25 83 -4 144 16 44 16 49 -17 200 -28 133 -33
173 -33 299 0 80 6 184 13 232 l13 87 -39 32 c-85 72 -294 293 -366 387 -153
204 -255 402 -328 642 -33 108 -69 299 -69 368 l0 47 59 -90 c33 -50 102 -143
154 -208z"/>
<path d="M630 4478 c0 -4 15 -58 34 -120 104 -342 266 -613 534 -889 280 -290
509 -414 622 -336 55 37 74 70 78 141 3 47 -1 73 -14 101 -21 46 -95 105 -189
152 -273 138 -527 334 -756 586 -97 106 -220 253 -288 344 -11 16 -21 25 -21
21z"/>
<path d="M4325 4412 c-152 -202 -361 -425 -535 -571 -138 -115 -271 -205 -438
-295 -68 -36 -141 -80 -162 -98 -106 -85 -106 -244 0 -316 30 -21 44 -23 95
-19 82 6 169 48 291 140 179 135 385 357 524 565 79 118 177 323 228 477 38
115 57 186 50 185 -2 -1 -25 -31 -53 -68z"/>
<path d="M2320 3855 c-101 -23 -214 -66 -198 -76 7 -5 20 -9 28 -9 23 0 192
-87 225 -115 l30 -26 -43 21 c-23 11 -86 32 -139 46 -172 46 -331 24 -462 -62
l-54 -36 43 -27 43 -27 51 18 c67 23 151 22 196 -1 l35 -19 -61 0 c-58 0 -114
-18 -129 -42 -4 -6 10 -29 30 -51 73 -81 83 -156 36 -254 -69 -144 -173 -184
-340 -130 -24 7 -24 7 -18 -48 6 -62 33 -120 78 -172 54 -61 -6 -39 -79 29
-49 45 -74 101 -80 177 -4 59 -7 67 -33 81 -16 9 -31 14 -33 10 -12 -20 -26
-180 -26 -300 1 -142 27 -339 45 -335 6 2 32 12 59 24 l48 21 -6 41 c-4 23
-25 79 -48 124 -24 50 -42 102 -45 130 l-4 48 24 -55 c13 -30 42 -83 64 -117
22 -34 46 -82 53 -107 14 -52 22 -54 91 -31 47 17 139 79 139 95 0 5 -14 25
-31 45 -38 43 -31 45 16 4 l35 -31 20 23 20 24 -11 -33 c-14 -42 -91 -126
-143 -157 -22 -13 -75 -36 -116 -50 -93 -34 -137 -66 -161 -119 -27 -61 -24
-104 12 -162 42 -65 52 -95 41 -124 -8 -22 -9 -21 -15 14 -6 36 -31 76 -47 76
-4 0 -5 -20 -3 -43 6 -48 -10 -89 -47 -122 l-23 -20 22 42 c11 23 21 47 21 52
0 6 -36 -26 -79 -70 -91 -91 -102 -122 -82 -222 18 -82 59 -139 123 -171 83
-40 116 -43 174 -12 55 29 111 34 140 10 18 -15 18 -15 -7 -10 -34 7 -88 -9
-124 -38 -28 -22 -29 -25 -16 -50 l14 -25 34 29 c24 22 44 30 71 30 l37 0 -35
-18 c-44 -22 -80 -75 -80 -120 0 -27 8 -42 37 -68 20 -19 41 -34 46 -34 13 0
-2 73 -16 82 -19 12 23 78 59 96 26 12 43 13 84 5 59 -12 63 0 10 29 -22 11
-28 18 -17 18 48 0 115 -61 180 -163 34 -53 82 -97 121 -111 16 -6 18 -3 12
25 -3 18 -18 48 -32 67 -21 27 -23 32 -8 24 44 -23 84 -93 84 -144 0 -42 31
-93 72 -118 26 -16 41 -19 73 -13 57 10 113 6 163 -13 35 -13 48 -14 72 -4 55
23 104 29 151 19 38 -8 53 -7 77 5 42 22 82 73 82 104 0 50 21 101 54 137 18
19 39 35 47 35 7 0 2 -12 -14 -28 -27 -28 -54 -89 -44 -99 8 -7 68 30 93 57
10 12 39 51 64 88 50 74 100 118 145 127 l30 7 -31 -20 c-39 -25 -54 -46 -28
-39 103 31 150 11 184 -78 5 -14 6 -24 1 -21 -11 7 -21 -17 -21 -50 l0 -25 35
27 c39 30 50 58 41 107 -7 38 -57 94 -89 100 -13 3 -7 5 15 6 28 1 45 -6 70
-28 l33 -29 17 23 c17 23 17 24 -12 48 -43 37 -93 51 -133 38 l-32 -11 24 20
c33 28 96 26 146 -5 49 -30 68 -31 141 -4 78 29 126 80 147 155 31 112 18 178
-47 228 -21 15 -51 46 -67 69 -25 35 -29 37 -29 17 0 -12 10 -39 22 -59 l22
-36 -22 19 c-44 39 -65 84 -59 132 2 24 1 44 -4 44 -13 0 -41 -47 -49 -83 -8
-30 -8 -30 -9 14 -1 36 5 54 30 87 86 117 31 237 -136 296 -93 32 -162 74
-205 122 -33 39 -74 113 -66 121 3 3 11 -6 17 -21 15 -31 20 -32 45 -5 10 11
28 26 39 31 19 10 19 10 -1 -13 -49 -55 -49 -65 3 -103 47 -35 120 -66 154
-66 11 0 22 16 34 53 9 28 30 71 46 95 33 49 65 109 85 161 l14 36 -6 -50 c-3
-27 -25 -93 -49 -145 -24 -52 -47 -112 -50 -132 -7 -35 -5 -38 21 -48 16 -6
42 -18 58 -26 16 -8 30 -13 31 -12 1 2 10 48 20 103 23 121 26 342 6 463 -7
45 -16 82 -18 82 -3 0 -18 -9 -34 -21 -25 -18 -29 -27 -29 -68 0 -100 -52
-187 -139 -235 -55 -30 -66 -24 -25 15 46 43 76 105 81 171 6 57 5 61 -13 54
-162 -64 -301 0 -360 166 -27 79 -9 150 60 226 l36 40 -23 15 c-36 23 -97 37
-142 32 l-40 -5 40 20 c50 24 123 25 191 2 l51 -18 42 27 43 26 -27 21 c-150
118 -394 133 -611 37 -33 -14 -52 -20 -44 -12 32 30 155 97 218 118 64 21 65
22 40 35 -14 7 -66 25 -114 40 -75 22 -112 27 -234 30 -101 2 -165 -1 -210
-11z m-108 -480 c15 -28 21 -57 21 -100 0 -61 -14 -100 -68 -195 -22 -39 -25
-54 -22 -110 3 -36 8 -78 12 -95 7 -29 7 -29 -24 10 -17 22 -34 57 -37 77 l-7
38 -40 -30 c-58 -43 -66 -37 -17 13 46 46 123 158 141 204 29 76 30 158 4 238
-6 16 -5 17 4 5 7 -8 21 -33 33 -55z m619 24 c-20 -57 -14 -158 14 -217 33
-71 79 -137 134 -194 52 -55 48 -61 -15 -18 l-44 31 0 -29 c0 -28 -57 -128
-67 -118 -3 3 0 19 6 37 6 18 11 57 11 88 0 48 -7 71 -45 144 -39 77 -45 96
-45 150 0 48 6 76 26 116 28 56 43 62 25 10z m-530 -264 c-2 -66 -4 -167 -4
-225 l-1 -105 46 -98 c26 -54 52 -126 59 -160 11 -61 6 -157 -10 -200 -6 -15
-3 -34 10 -59 23 -45 25 -125 4 -175 -18 -42 -19 -53 -5 -53 20 0 58 50 64 85
4 20 -2 80 -15 147 -17 90 -20 132 -15 208 10 157 23 173 25 30 1 -94 7 -148
24 -219 l24 -94 24 99 c19 79 23 126 23 234 0 161 13 127 22 -55 5 -90 2 -139
-10 -195 -25 -117 -22 -173 12 -211 38 -42 56 -31 31 18 -25 48 -24 126 1 181
15 34 17 48 9 70 -6 15 -11 63 -11 108 -1 88 14 145 68 258 53 110 59 160 39
298 -11 78 -15 137 -10 175 12 95 23 103 18 13 -4 -63 0 -110 16 -184 35 -166
28 -236 -40 -387 -31 -69 -40 -102 -40 -144 0 -30 2 -59 6 -65 3 -6 35 29 71
76 47 63 71 107 89 163 23 73 24 74 25 35 0 -59 -33 -159 -74 -224 -33 -51
-44 -80 -30 -80 13 0 52 25 82 53 17 17 32 27 32 21 0 -25 -45 -78 -87 -102
-106 -61 -144 -123 -129 -206 8 -42 65 -96 104 -97 85 -4 104 8 161 94 23 36
59 77 80 91 51 35 64 33 20 -4 -35 -28 -68 -85 -56 -96 10 -11 52 19 107 76
67 70 124 100 199 106 l56 5 -68 -24 c-43 -15 -81 -36 -100 -57 l-32 -32 42 6
c23 3 59 16 79 28 45 27 144 29 190 5 23 -13 25 -16 10 -17 -16 0 -17 -3 -8
-12 7 -7 11 -30 11 -52 -2 -34 -3 -36 -6 -11 -8 53 -23 52 -23 0 0 -33 -7 -60
-20 -80 -22 -33 -26 -24 -9 23 7 22 7 42 -2 74 l-13 43 -6 -85 c-7 -87 -38
-169 -75 -200 -12 -10 -10 -3 6 26 l22 39 -39 -36 c-59 -54 -96 -77 -147 -91
-25 -6 -44 -15 -41 -20 7 -11 68 -10 100 2 15 6 29 8 32 6 8 -9 -50 -28 -98
-33 -37 -4 -56 1 -102 26 -83 45 -126 41 -75 -7 49 -46 132 -64 205 -43 19 6
30 6 27 1 -9 -15 -76 -30 -134 -30 -70 0 -136 31 -163 77 -20 33 -55 50 -83
39 -16 -6 -19 -12 -29 -58 -6 -26 -10 -28 -59 -28 -61 0 -84 -16 -122 -80 -23
-39 -26 -41 -20 -15 20 89 67 138 124 129 35 -6 37 -4 55 36 19 44 16 61 -9
40 -9 -8 -27 -10 -47 -6 -22 4 -43 1 -65 -11 -25 -13 -36 -14 -55 -6 l-23 12
28 0 c15 1 36 10 48 22 15 15 27 19 50 14 34 -8 59 8 59 36 0 23 -40 35 -68
20 -12 -6 -32 -11 -46 -11 -32 0 -92 52 -101 88 l-7 27 -13 -32 c-30 -72 -91
-102 -147 -72 -28 15 -68 3 -68 -20 0 -29 24 -43 62 -36 26 5 38 2 52 -14 11
-12 30 -21 43 -21 14 0 21 -4 18 -10 -9 -15 -48 -12 -73 5 -15 11 -32 14 -57
9 -23 -4 -41 -2 -50 6 -23 19 -30 4 -11 -24 9 -14 16 -33 16 -42 0 -14 7 -15
39 -10 48 7 85 -18 112 -78 26 -58 25 -92 -2 -41 -34 65 -62 85 -123 85 l-53
0 -7 39 c-10 65 -74 69 -111 8 -42 -68 -172 -98 -265 -62 -34 13 -33 13 26 8
72 -7 127 8 167 45 54 51 18 57 -68 12 -67 -35 -113 -38 -170 -10 -22 11 -31
18 -20 14 46 -13 113 -16 119 -5 4 6 0 11 -11 11 -31 1 -106 40 -155 81 -52
43 -58 43 -31 1 16 -25 16 -26 1 -13 -37 28 -70 117 -75 203 -4 54 -9 76 -14
63 -11 -30 -10 -103 2 -128 8 -17 5 -16 -15 6 -21 22 -26 38 -26 79 0 56 -8
58 -20 6 l-8 -33 -1 33 c-1 18 4 42 9 53 9 15 7 19 -7 19 -13 1 -10 5 10 16
47 25 143 21 207 -10 51 -24 100 -34 100 -20 0 20 -84 71 -150 91 l-45 13 57
-4 c74 -6 146 -44 205 -111 64 -71 103 -92 103 -55 0 11 -20 41 -45 65 -24 25
-42 45 -38 45 22 0 80 -52 119 -106 63 -88 86 -104 147 -104 44 0 53 4 88 39
35 34 39 44 39 87 0 31 -7 61 -19 80 -20 33 -33 44 -114 96 -30 19 -55 46 -69
72 l-20 41 33 -32 c31 -29 87 -59 95 -50 2 2 -14 34 -36 71 -49 83 -66 133
-74 211 l-6 60 19 -55 c25 -78 56 -134 106 -195 23 -29 45 -59 47 -66 11 -29
22 4 22 64 0 52 -7 77 -42 152 -68 149 -76 215 -41 368 15 68 20 116 17 185
-3 67 -1 87 7 75 6 -11 9 -65 6 -138z m-527 -1396 c50 -27 72 -33 127 -33 59
-1 74 4 170 52 109 55 130 57 186 22 15 -10 14 -10 -9 -5 -16 3 -28 3 -28 1 0
-2 16 -20 35 -39 19 -19 35 -42 35 -50 0 -10 -12 -3 -34 19 -19 19 -44 34 -57
34 -41 0 -85 -35 -113 -91 -36 -72 -34 -115 6 -167 18 -23 37 -42 42 -42 5 0
2 8 -7 18 -25 27 -21 60 7 73 29 14 94 -13 148 -60 20 -17 38 -31 41 -31 2 0
8 15 12 33 7 29 9 27 15 -31 11 -100 59 -137 172 -130 60 3 72 7 99 34 33 33
50 90 43 138 -4 25 -3 27 5 11 5 -11 12 -28 15 -38 5 -15 13 -12 58 23 56 43
105 62 137 53 37 -10 35 -51 -5 -84 -16 -13 -16 -12 -6 8 23 42 12 46 -23 10
-39 -41 -84 -67 -129 -76 -43 -9 -46 -31 -4 -31 66 1 177 69 217 134 28 44 26
96 -4 155 -57 114 -136 120 -202 16 -8 -12 -7 -3 2 20 8 22 26 50 40 62 31 27
32 37 4 28 -14 -5 -19 -3 -15 4 4 5 23 15 44 21 34 9 44 7 141 -42 95 -48 111
-53 170 -53 56 0 76 6 128 34 34 18 81 50 105 70 l43 36 -22 -31 c-59 -82
-153 -142 -239 -151 -30 -3 -54 -9 -54 -13 0 -11 56 -20 93 -14 30 4 31 4 7
-6 -32 -14 -104 -17 -153 -7 l-38 8 7 -36 c10 -53 -18 -116 -71 -159 -62 -51
-142 -89 -200 -94 -71 -6 -96 -31 -88 -88 8 -63 -2 -90 -39 -103 -40 -14 -46
-8 -13 13 19 12 25 25 25 50 0 59 -5 64 -55 53 -29 -7 -56 -7 -83 0 -45 12
-52 5 -52 -45 0 -32 7 -42 40 -66 l25 -18 -30 6 c-49 11 -68 42 -62 103 5 44
2 54 -17 72 -14 13 -35 21 -59 21 -48 0 -110 25 -172 68 -84 60 -121 124 -109
190 6 33 5 34 -17 26 -33 -10 -143 -9 -163 3 -12 7 -3 9 34 9 27 0 56 6 62 12
9 9 3 12 -30 12 -93 0 -200 64 -264 158 l-31 47 48 -47 c27 -26 76 -62 109
-79z"/>
<path d="M2134 1480 c4 -14 8 -32 10 -40 8 -44 186 -107 186 -66 0 11 -9 16
-25 16 -36 0 -79 24 -133 73 -41 38 -45 39 -38 17z"/>
<path d="M1500 1510 c0 -6 9 -52 20 -103 25 -115 66 -236 91 -268 l19 -24 1
60 c1 71 7 61 18 -26 l7 -64 13 86 c16 105 12 143 -12 147 -15 3 -18 -1 -12
-20 5 -18 -1 -15 -29 17 -21 24 -42 62 -51 95 -9 30 -18 63 -21 73 -6 20 -44
44 -44 27z"/>
<path d="M3484 1498 c-12 -12 -27 -45 -33 -73 -10 -42 -74 -155 -87 -155 -3 0
-1 12 2 27 6 22 4 25 -10 20 -10 -4 -20 -7 -22 -7 -7 0 -4 -57 7 -134 13 -87
28 -91 31 -8 l1 57 6 -55 6 -55 18 27 c26 37 62 145 87 257 25 113 24 132 -6
99z"/>
<path d="M1751 1464 c-20 -25 -25 -54 -36 -209 -12 -161 -46 -329 -95 -469
-11 -33 -19 -61 -17 -63 8 -8 106 142 153 235 83 165 161 434 140 488 -7 18
-66 44 -100 44 -14 0 -33 -11 -45 -26z"/>
<path d="M3153 1474 c-17 -9 -33 -21 -36 -27 -19 -53 57 -325 134 -478 63
-126 174 -293 156 -234 -3 11 -20 65 -37 120 -35 114 -65 286 -78 456 -12 144
-24 173 -72 177 -19 1 -49 -5 -67 -14z"/>
<path d="M1955 1350 c-9 -15 5 -110 16 -110 5 0 16 11 25 25 15 23 15 27 -6
60 -24 38 -26 40 -35 25z"/>
<path d="M3023 1326 l-21 -33 21 -34 21 -34 7 30 c9 42 10 105 2 105 -5 0 -18
-15 -30 -34z"/>
<path d="M2046 1237 c11 -36 42 -93 57 -105 11 -10 17 -9 27 2 21 26 -4 78
-51 103 l-40 22 7 -22z"/>
<path d="M2940 1240 c-14 -11 -30 -20 -35 -20 -18 0 -36 -60 -24 -81 5 -11 13
-19 17 -19 11 0 60 81 67 113 8 32 7 32 -25 7z"/>
<path d="M3119 1129 c-9 -13 -28 -48 -43 -78 l-28 -54 28 7 c28 7 39 19 67 66
12 20 13 30 3 54 l-12 29 -15 -24z"/>
<path d="M1864 1116 c-8 -32 33 -103 65 -111 13 -3 26 -4 28 -1 7 7 -66 136
-77 136 -5 0 -12 -11 -16 -24z"/>
<path d="M2200 1090 c0 -17 44 -80 57 -80 6 0 21 12 33 27 l22 28 -37 7 c-20
5 -45 13 -56 18 -13 8 -19 7 -19 0z"/>
<path d="M2797 1093 c-4 -3 -27 -11 -52 -17 l-44 -12 25 -27 c14 -16 30 -27
36 -25 14 5 62 88 51 88 -5 0 -13 -3 -16 -7z"/>
<path d="M2382 1039 c40 -71 54 -73 91 -10 l18 31 -26 10 c-14 6 -44 10 -66
10 l-40 0 23 -41z"/>
<path d="M2542 1070 c-25 -10 -23 -20 17 -70 23 -29 35 -22 69 39 l23 41 -43
-1 c-24 0 -53 -4 -66 -9z"/>
<path d="M1806 988 l-38 -82 28 -20 c16 -12 39 -31 50 -43 12 -13 23 -23 26
-23 2 0 1 26 -3 58 -3 31 -5 58 -4 60 8 10 49 -125 61 -201 16 -101 30 -132
76 -175 47 -44 141 -105 134 -87 -20 48 -19 50 4 28 13 -12 35 -46 49 -75 22
-44 35 -57 80 -80 67 -34 99 -35 159 -3 59 32 106 32 157 0 47 -29 76 -31 136
-10 55 20 75 39 106 100 27 54 51 85 65 85 5 0 1 -11 -8 -25 -9 -14 -15 -27
-13 -30 2 -2 39 21 81 50 91 65 121 116 138 239 6 44 21 102 34 130 l24 51 -6
-60 -5 -60 49 45 c27 24 50 47 52 50 1 4 -14 42 -34 84 l-37 78 -23 -29 c-15
-19 -19 -30 -11 -35 8 -5 5 -9 -6 -14 -10 -3 -26 -23 -37 -43 -10 -20 -19 -30
-20 -22 -1 33 -50 -35 -71 -98 -24 -70 -65 -121 -97 -121 -11 0 -39 9 -63 20
-76 34 -111 19 -46 -20 17 -11 26 -20 19 -20 -25 0 -67 29 -112 75 -60 63 -92
75 -195 75 -100 0 -138 -15 -200 -80 -40 -42 -83 -70 -107 -70 -7 0 2 9 20 20
33 20 42 40 18 40 -7 0 -35 -9 -61 -21 -79 -35 -132 -3 -161 100 -16 54 -59
115 -75 105 -4 -2 -10 5 -14 16 -4 11 -18 28 -31 37 -14 9 -21 19 -15 22 6 4
2 17 -12 34 l-22 28 -39 -83z m848 -262 c18 -7 48 -27 67 -43 56 -50 72 -55
123 -41 39 10 48 10 64 -5 25 -23 44 -21 78 5 l29 23 -16 -25 c-23 -35 -61
-47 -104 -31 -27 9 -43 9 -74 0 -43 -13 -43 -13 -141 56 -40 27 -51 30 -148
33 -124 5 -170 -6 -231 -56 -37 -30 -52 -36 -83 -34 -63 4 -91 3 -128 -3 -31
-6 -39 -2 -65 26 l-30 33 29 -22 c34 -26 54 -27 85 -6 19 14 29 15 62 5 44
-13 59 -8 125 45 22 18 51 38 65 43 38 15 254 13 293 -3z m-190 -141 l47 -25
27 20 c27 19 82 37 82 26 0 -3 -13 -12 -30 -21 -16 -8 -41 -35 -56 -60 -14
-25 -28 -45 -30 -45 -2 0 -13 18 -24 41 -12 22 -37 49 -56 61 -63 37 -30 40
40 3z"/>
<path d="M1987 926 c28 -30 60 -75 72 -101 23 -49 51 -66 94 -58 36 7 35 30
-6 89 -34 49 -118 104 -181 118 -28 7 -27 5 21 -48z"/>
<path d="M2996 955 c-65 -26 -127 -80 -151 -131 -21 -45 -19 -51 16 -58 42 -8
65 7 93 62 13 26 45 71 71 100 26 29 43 52 38 52 -4 0 -35 -11 -67 -25z"/>
<path d="M2431 920 l-20 -45 35 -3 c20 -2 38 -1 41 2 8 8 -4 48 -21 71 -14 19
-15 18 -35 -25z"/>
<path d="M2535 927 c-22 -52 -20 -57 25 -57 l40 0 -15 38 c-24 56 -33 60 -50
19z"/>
<path d="M2331 880 c-6 -28 -11 -53 -11 -56 0 -3 14 3 30 13 17 9 30 21 30 26
0 10 -29 67 -34 67 -3 0 -9 -23 -15 -50z"/>
<path d="M2645 896 c-9 -21 -15 -39 -13 -40 2 -1 16 -10 32 -20 l29 -18 -7 42
c-11 72 -22 81 -41 36z"/>
<path d="M2220 845 c0 -54 0 -55 30 -55 17 0 30 2 30 5 0 10 -50 105 -55 105
-3 0 -5 -25 -5 -55z"/>
<path d="M2767 873 c-10 -18 -22 -44 -27 -58 -9 -24 -8 -25 25 -25 33 0 35 2
34 33 -1 17 -4 43 -8 57 l-7 25 -17 -32z"/>
</g>
</svg>
